HIERARCHY
ROOT Hips
{
  OFFSET -2.9740628571428576 95.22824285714285 -3.405862857142857
  CHANNELS 6 Xposition Yposition Zposition Zrotation Xrotation Yrotation
  JOINT LeftUpLeg
  {
    OFFSET 8.64259 1.9539799999999998 -2.3883499999999995
    CHANNELS 3 Zrotation Xrotation Yrotation
    JOINT LeftLeg
    {
      OFFSET 43.770199999999996 0.0 0.0
      CHANNELS 3 Zrotation Xrotation Yrotation
      JOINT LeftFoot
      {
        OFFSET 40.62380000000001 0.0 0.0
        CHANNELS 3 Zrotation Xrotation Yrotation
        JOINT LeftToeBase
        {
          OFFSET 12.724199999999998 0.0 0.0
          CHANNELS 3 Zrotation Xrotation Yrotation
          End Site
          {
            OFFSET 0.0 0.0 0.0
          }
        }
      }
    }
  }
  JOINT RightUpLeg
  {
    OFFSET -8.2249 1.9539799999999998 -2.59336
    CHANNELS 3 Zrotation Xrotation Yrotation
    JOINT RightLeg
    {
      OFFSET 43.56529999999999 0.0 0.0
      CHANNELS 3 Zrotation Xrotation Yrotation
      JOINT RightFoot
      {
        OFFSET 40.62380000000001 0.0 0.0
        CHANNELS 3 Zrotation Xrotation Yrotation
        JOINT RightToeBase
        {
          OFFSET 12.724199999999998 0.0 0.0
          CHANNELS 3 Zrotation Xrotation Yrotation
          End Site
          {
            OFFSET 0.0 0.0 0.0
          }
        }
      }
    }
  }
  JOINT Spine
  {
    OFFSET 0.16583 0.8771399999999999 6.61349
    CHANNELS 3 Zrotation Xrotation Yrotation
    JOINT Spine1
    {
      OFFSET 7.389628571428571 2e-05 0.0
      CHANNELS 3 Zrotation Xrotation Yrotation
      JOINT Spine2
      {
        OFFSET 11.944500000000001 1e-05 0.0
        CHANNELS 3 Zrotation Xrotation Yrotation
        JOINT Spine3
        {
          OFFSET 14.725400000000004 4e-05 0.0
          CHANNELS 3 Zrotation Xrotation Yrotation
          JOINT Spine4
          {
            OFFSET 10.9679 0.0 0.0
            CHANNELS 3 Zrotation Xrotation Yrotation
            JOINT RightShoulder
            {
              OFFSET 2.46616 -1.6653 3.69651
              CHANNELS 3 Zrotation Xrotation Yrotation
              JOINT RightArm
              {
                OFFSET 13.001199999999999 0.0 0.0
                CHANNELS 3 Zrotation Xrotation Yrotation
                JOINT RightForeArm
                {
                  OFFSET 28.784799999999997 2e-05 0.0
                  CHANNELS 3 Zrotation Xrotation Yrotation
                  JOINT RightHand
                  {
                    OFFSET 26.568800000000003 2e-05 0.0
                    CHANNELS 3 Zrotation Xrotation Yrotation
                    JOINT RightHandMiddle1
                    {
                      OFFSET 8.03675 -0.8865800000000001 0.7278700000000001
                      CHANNELS 3 Zrotation Xrotation Yrotation
                      JOINT RightHandMiddle2
                      {
                        OFFSET 2.7883299999999993 0.0 0.0
                        CHANNELS 3 Zrotation Xrotation Yrotation
                        JOINT RightHandMiddle3
                        {
                          OFFSET 2.4115500000000005 0.0 0.0
                          CHANNELS 3 Zrotation Xrotation Yrotation
                          End Site
                          {
                            OFFSET 0.0 0.0 0.0
                          }
                        }
                      }
                    }
                    JOINT RightHandRing1
                    {
                      OFFSET 7.979660000000002 -0.8867700000000002 -1.00486
                      CHANNELS 3 Zrotation Xrotation Yrotation
                      JOINT RightHandRing2
                      {
                        OFFSET 2.8636799999999996 0.0 0.0
                        CHANNELS 3 Zrotation Xrotation Yrotation
                        JOINT RightHandRing3
                        {
                          OFFSET 2.11079 0.0 0.0
                          CHANNELS 3 Zrotation Xrotation Yrotation
                          End Site
                          {
                            OFFSET 0.0 0.0 0.0
                          }
                        }
                      }
                    }
                    JOINT RightHandPinky1
                    {
                      OFFSET 8.03707 -0.8875299999999999 -2.6069600000000004
                      CHANNELS 3 Zrotation Xrotation Yrotation
                      JOINT RightHandPinky2
                      {
                        OFFSET 1.8462757142857142 0.0 0.0
                        CHANNELS 3 Zrotation Xrotation Yrotation
                        JOINT RightHandPinky3
                        {
                          OFFSET 1.8843400000000001 0.0 0.0
                          CHANNELS 3 Zrotation Xrotation Yrotation
                          End Site
                          {
                            OFFSET 0.0 0.0 0.0
                          }
                        }
                      }
                    }
                    JOINT RightHandIndex1
                    {
                      OFFSET 7.92262 -0.8855000000000002 2.31175
                      CHANNELS 3 Zrotation Xrotation Yrotation
                      JOINT RightHandIndex2
                      {
                        OFFSET 2.63761 0.0 0.0
                        CHANNELS 3 Zrotation Xrotation Yrotation
                        JOINT RightHandIndex3
                        {
                          OFFSET 2.16656 0.0 0.0
                          CHANNELS 3 Zrotation Xrotation Yrotation
                          End Site
                          {
                            OFFSET 0.0 0.0 0.0
                          }
                        }
                      }
                    }
                    JOINT RightHandThumb1
                    {
                      OFFSET 3.4769 0.059800000000000006 2.8878899999999996
                      CHANNELS 3 Zrotation Xrotation Yrotation
                      JOINT RightHandThumb2
                      {
                        OFFSET 2.7768599999999997 0.00010000000000000002 -2e-05
                        CHANNELS 3 Zrotation Xrotation Yrotation
                        JOINT RightHandThumb3
                        {
                          OFFSET 2.420578571428571 -9e-05 0.0
                          CHANNELS 3 Zrotation Xrotation Yrotation
                          End Site
                          {
                            OFFSET 0.0 0.0 0.0
                          }
                        }
                      }
                    }
                  }
                }
              }
            }
            JOINT LeftShoulder
            {
              OFFSET 2.3803400000000003 -1.29275 -3.7523014285714282
              CHANNELS 3 Zrotation Xrotation Yrotation
              JOINT LeftArm
              {
                OFFSET 16.3182 5.9999999999999995e-05 0.0
                CHANNELS 3 Zrotation Xrotation Yrotation
                JOINT LeftForeArm
                {
                  OFFSET 27.090100000000003 0.0 0.0
                  CHANNELS 3 Zrotation Xrotation Yrotation
                  JOINT LeftHand
                  {
                    OFFSET 24.545099999999998 2e-05 0.0
                    CHANNELS 3 Zrotation Xrotation Yrotation
                    JOINT LeftHandMiddle1
                    {
                      OFFSET 9.218019999999997 0.66582 0.5455300000000002
                      CHANNELS 3 Zrotation Xrotation Yrotation
                      JOINT LeftHandMiddle2
                      {
                        OFFSET 2.66255 0.0 0.0
                        CHANNELS 3 Zrotation Xrotation Yrotation
                        JOINT LeftHandMiddle3
                        {
                          OFFSET 2.2804 0.0 0.0
                          CHANNELS 3 Zrotation Xrotation Yrotation
                          End Site
                          {
                            OFFSET 0.0 0.0 0.0
                          }
                        }
                      }
                    }
                    JOINT LeftHandRing1
                    {
                      OFFSET 9.247749999999998 0.66519 -1.1266999999999998
                      CHANNELS 3 Zrotation Xrotation Yrotation
                      JOINT LeftHandRing2
                      {
                        OFFSET 2.4704099999999998 0.0 -2e-05
                        CHANNELS 3 Zrotation Xrotation Yrotation
                        JOINT LeftHandRing3
                        {
                          OFFSET 2.2054000000000005 0.0 0.0
                          CHANNELS 3 Zrotation Xrotation Yrotation
                          End Site
                          {
                            OFFSET 0.0 0.0 0.0
                          }
                        }
                      }
                    }
                    JOINT LeftHandPinky1
                    {
                      OFFSET 9.35383857142857 0.66301 -2.7233200000000006
                      CHANNELS 3 Zrotation Xrotation Yrotation
                      JOINT LeftHandPinky2
                      {
                        OFFSET 1.63407 0.0 0.0
                        CHANNELS 3 Zrotation Xrotation Yrotation
                        JOINT LeftHandPinky3
                        {
                          OFFSET 1.71176 0.0 0.0
                          CHANNELS 3 Zrotation Xrotation Yrotation
                          End Site
                          {
                            OFFSET 0.0 0.0 0.0
                          }
                        }
                      }
                    }
                    JOINT LeftHandIndex1
                    {
                      OFFSET 8.731608571428572 0.6758999999999998 2.0680099999999997
                      CHANNELS 3 Zrotation Xrotation Yrotation
                      JOINT LeftHandIndex2
                      {
                        OFFSET 2.6668899999999995 0.0 0.0
                        CHANNELS 3 Zrotation Xrotation Yrotation
                        JOINT LeftHandIndex3
                        {
                          OFFSET 2.12946 0.0 2e-05
                          CHANNELS 3 Zrotation Xrotation Yrotation
                          End Site
                          {
                            OFFSET 0.0 0.0 0.0
                          }
                        }
                      }
                    }
                    JOINT LeftHandThumb1
                    {
                      OFFSET 4.967354285714285 -0.62265 3.3958599999999994
                      CHANNELS 3 Zrotation Xrotation Yrotation
                      JOINT LeftHandThumb2
                      {
                        OFFSET 2.15386 2e-05 0.0
                        CHANNELS 3 Zrotation Xrotation Yrotation
                        JOINT LeftHandThumb3
                        {
                          OFFSET 2.1951099999999997 -2.9999999999999997e-05 2e-05
                          CHANNELS 3 Zrotation Xrotation Yrotation
                          End Site
                          {
                            OFFSET 0.0 0.0 0.0
                          }
                        }
                      }
                    }
                  }
                }
              }
            }
            JOINT Neck
            {
              OFFSET 5.0226 -0.026629999999999994 0.0
              CHANNELS 3 Zrotation Xrotation Yrotation
              JOINT Head
              {
                OFFSET 6.693637142857143 2.9999999999999997e-05 0.0
                CHANNELS 3 Zrotation Xrotation Yrotation
                End Site
                {
                  OFFSET 0.0 0.0 0.0
                }
              }
            }
          }
        }
      }
    }
  }
}
MOTION
Frames: 4
Frame Time: 0.03333333
-16.8904 88.0567 10.0074 -94.1671 57.0851 -98.01110000000001 -174.40900000000002 23.4077 79.5716 -51.3266 -9.96316 -0.627434 70.9637 -1.40204 -0.666977 28.7808 7.732360000000001e-06 1.06584e-05 -173.699 23.1027 76.6343 -95.6356 -24.279899999999998 -2.9992799999999997 32.9444 31.54 32.2804 28.7808 1.73858e-05 2.59385e-05 2.63864 7.621689999999999 -85.8184 11.8234 5.3505199999999995 2.0737900000000007 0.16240500000000002 5.4364 1.8338400000000001 -22.4259 4.48104 3.5843199999999995 -2.41322 4.4810300000000005 3.5843000000000003 97.5777 -42.0917 -89.9155 38.3818 37.4123 -81.8099 -14.883399999999998 -59.541199999999996 -0.015773000000002924 -37.1716 -1.2660000000000005 -1.1795200000000001 -89.4043 88.9709 89.0941 -0.060492899999999995 1.15709e-05 3.34524e-06 -0.0639181 -2.21754e-05 -1.08022e-06 -89.3948 88.98100000000001 89.0846 -1.1574200000000001 -3.93858e-06 -7.254130000000001e-07 2.576 -1.10827e-05 1.47905e-06 -88.8565 89.3579 88.5464 -1.14578 -3.5061300000000006e-06 2.931730000000054e-07 1.1457700000000002 3.86399e-06 3.02125e-07 -89.42299999999999 88.9487 89.1127 0.409288 4.62653e-06 0.000584808 -0.636602 -1.8209e-05 -4.8434599999999995e-08 104.36399999999999 40.5023 -88.8246 -7.66902 0.18615299999999999 -1.35045 -11.2634 -4.47056e-06 7.64592e-05 -88.0655 -33.128 77.891 14.305400000000002 -32.047 -20.3985 1.8072400000000002 -30.661 -2.7517100000000028 17.8809 9.70088 46.7294 -91.1873 -87.8289 -89.9988 3.4088800000000004 -4.132219999999999e-07 0.00371628 -0.954857 8.517759999999999e-06 -1.0157299999999998e-06 -91.1871 -89.4015 -89.9985 2.85637 9.40464e-06 0.00302356 -3.1684400000000004 -1.56405e-05 -1.11522e-06 88.8099 -89.7171 89.9985 2.54481 1.11522e-05 0.00291753 -2.54482 -6.942059999999998e-07 -1.33893e-06 -91.1882 -86.1973 -89.9997 6.1310400000000005 -1.13536e-06 0.00659701 -2.04542 -2.69887e-06 1.11844e-06 -101.949 -40.7242 -90.0694 10.0172 9.8681e-06 3.6019099999999996e-06 -2.66978 -2.65871e-05 2.2951e-06 27.6729 -23.0366 20.9328 -23.4416 -22.9954 -38.5504
-17.6053 90.6534 8.26357 -95.85329999999999 60.15679999999999 -94.02930000000002 -174.227 18.9637 82.4078 -46.3417 -9.4631 0.9713189999999998 66.3187 -3.03903 -1.75767 28.7808 7.732360000000001e-06 1.06584e-05 -174.446 28.8887 79.5572 -101.93799999999999 -19.3387 -2.8256099999999997 30.0475 30.1965 32.5153 28.7808 1.73858e-05 2.59385e-05 2.18497 7.36234 -86.0674 12.2957 4.53664 1.8590099999999998 0.6316280000000001 4.6140300000000005 1.6571999999999998 -21.9401 3.76824 3.13758 -1.92743 3.7682300000000004 3.13758 100.426 -37.9848 -85.2032 33.2135 44.4418 -79.4354 -13.246399999999998 -50.7083 -0.01221629999999152 -33.591 0.731314 -7.8438 -89.4043 88.9709 89.0941 -0.060492899999999995 1.15709e-05 3.34524e-06 -0.0639181 -2.21754e-05 -1.08022e-06 -89.3948 88.98100000000001 89.0846 -1.1574200000000001 -3.93858e-06 -7.254130000000001e-07 2.576 -1.10827e-05 1.47905e-06 -88.8565 89.3579 88.5464 -1.14578 -3.5061300000000006e-06 2.931730000000054e-07 1.1457700000000002 3.86399e-06 3.02125e-07 -89.42299999999999 88.9487 89.1127 0.409288 4.62653e-06 0.000584808 -0.636602 -1.8209e-05 -4.8434599999999995e-08 104.36399999999999 40.5023 -88.8246 -7.66902 0.18615299999999999 -1.35045 -11.2634 -4.47056e-06 7.64592e-05 -86.9506 -26.3531 78.1441 12.383300000000002 -29.9444 -16.5901 1.8521799999999997 -26.2894 -2.838790000000003 24.051 1.83348 3.8085199999999997 -91.1873 -87.8289 -89.9988 3.4088800000000004 -4.132219999999999e-07 0.00371628 -0.954857 8.517759999999999e-06 -1.0157299999999998e-06 -91.1871 -89.4015 -89.9985 2.85637 9.40464e-06 0.00302356 -3.1684400000000004 -1.56405e-05 -1.11522e-06 88.8099 -89.7171 89.9985 2.54481 1.11522e-05 0.00291753 -2.54482 -6.942059999999998e-07 -1.33893e-06 -91.1882 -86.1973 -89.9997 6.1310400000000005 -1.13536e-06 0.00659701 -2.04542 -2.69887e-06 1.11844e-06 -101.949 -40.7242 -90.0694 10.0172 9.8681e-06 3.6019099999999996e-06 -2.66978 -2.65871e-05 2.2951e-06 22.165 -25.0366 16.1013 -18.9073 -24.3455 -35.9746
-18.097 94.7779 5.98985 -101.096 64.4964 -86.0868 -173.34099999999998 12.0584 86.9673 -38.3902 -7.77805 1.9616900000000002 55.8998 -4.67972 -3.5660499999999997 28.7808 7.732360000000001e-06 1.06584e-05 -176.713 27.6413 83.03 -104.148 -26.816199999999995 -3.34573 50.6043 31.593600000000002 23.5508 28.7808 1.73858e-05 2.59385e-05 1.99111 7.2492399999999995 -86.9901 12.4744 3.8107900000000003 1.40199 0.808349 3.8687699999999996 1.2327 -21.7543 3.21323 2.4832400000000003 -1.7417099999999999 3.2132099999999997 2.4832200000000006 101.8 -34.2721 -82.7501 30.3684 49.464 -78.0054 -13.9981 -41.3717 -0.009841270000002567 -18.1293 2.07322 -18.9513 -89.4043 88.9709 89.0941 -0.060492899999999995 1.15709e-05 3.34524e-06 -0.0639181 -2.21754e-05 -1.08022e-06 -89.3948 88.98100000000001 89.0846 -1.1574200000000001 -3.93858e-06 -7.254130000000001e-07 2.576 -1.10827e-05 1.47905e-06 -88.8565 89.3579 88.5464 -1.14578 -3.5061300000000006e-06 2.931730000000054e-07 1.1457700000000002 3.86399e-06 3.02125e-07 -89.42299999999999 88.9487 89.1127 0.409288 4.62653e-06 0.000584808 -0.636602 -1.8209e-05 -4.8434599999999995e-08 104.36399999999999 40.5023 -88.8246 -7.66902 0.18615299999999999 -1.35045 -11.2634 -4.47056e-06 7.64592e-05 -85.8298 -22.3217 79.2931 16.9178 -32.6358 -18.3779 1.9081099999999998 -22.026600000000002 -2.904299999999999 23.8345 4.2613900000000005 14.167400000000002 -91.1873 -87.8289 -89.9988 3.4088800000000004 -4.132219999999999e-07 0.00371628 -0.954857 8.517759999999999e-06 -1.0157299999999998e-06 -91.1871 -89.4015 -89.9985 2.85637 9.40464e-06 0.00302356 -3.1684400000000004 -1.56405e-05 -1.11522e-06 88.8099 -89.7171 89.9985 2.54481 1.11522e-05 0.00291753 -2.54482 -6.942059999999998e-07 -1.33893e-06 -91.1882 -86.1973 -89.9997 6.1310400000000005 -1.13536e-06 0.00659701 -2.04542 -2.69887e-06 1.11844e-06 -101.949 -40.7242 -90.0694 10.0172 9.8681e-06 3.6019099999999996e-06 -2.66978 -2.65871e-05 2.2951e-06 17.815 -24.8915 15.8798 -17.3976 -24.0831 -36.6215
-18.2984 99.5078 3.5107199999999996 -108.484 69.1678 -75.8765 -171.77900000000002 5.677219999999998 91.666 -29.1287 -7.0704899999999995 1.9039700000000004 39.1912 -4.11086 -4.74705 28.7808 7.732360000000001e-06 1.06584e-05 -179.33199999999997 20.8156 86.7369 -102.554 -33.2917 -3.7163600000000003 82.4856 20.2144 7.302010000000001 28.7808 1.73858e-05 2.59385e-05 1.6679300000000001 7.221430000000001 -88.0325 12.4836 3.1257200000000003 1.06508 0.8160699999999999 3.16954 0.9262900000000001 -21.7389 2.66107 1.9557200000000001 -1.72625 2.66107 1.9556999999999998 102.363 -31.7495 -81.6538 22.5044 54.5419 -71.1962 -16.3277 -68.8401 -0.019444900000010534 -48.0433 -1.1563899999999996 -2.3650900000000004 -89.4043 88.9709 89.0941 -0.060492899999999995 1.15709e-05 3.34524e-06 -0.0639181 -2.21754e-05 -1.08022e-06 -89.3948 88.98100000000001 89.0846 -1.1574200000000001 -3.93858e-06 -7.254130000000001e-07 2.576 -1.10827e-05 1.47905e-06 -88.8565 89.3579 88.5464 -1.14578 -3.5061300000000006e-06 2.931730000000054e-07 1.1457700000000002 3.86399e-06 3.02125e-07 -89.42299999999999 88.9487 89.1127 0.409288 4.62653e-06 0.000584808 -0.636602 -1.8209e-05 -4.8434599999999995e-08 104.36399999999999 40.5023 -88.8246 -7.66902 0.18615299999999999 -1.35045 -11.2634 -4.47056e-06 7.64592e-05 -84.2544 -17.5531 81.561 17.8837 -32.1557 -15.6965 1.95477 -18.659000000000006 -2.957799999999999 23.5937 1.33057 1.7730700000000006 -91.1873 -87.8289 -89.9988 3.4088800000000004 -4.132219999999999e-07 0.00371628 -0.954857 8.517759999999999e-06 -1.0157299999999998e-06 -91.1871 -89.4015 -89.9985 2.85637 9.40464e-06 0.00302356 -3.1684400000000004 -1.56405e-05 -1.11522e-06 88.8099 -89.7171 89.9985 2.54481 1.11522e-05 0.00291753 -2.54482 -6.942059999999998e-07 -1.33893e-06 -91.1882 -86.1973 -89.9997 6.1310400000000005 -1.13536e-06 0.00659701 -2.04542 -2.69887e-06 1.11844e-06 -101.949 -40.7242 -90.0694 10.0172 9.8681e-06 3.6019099999999996e-06 -2.66978 -2.65871e-05 2.2951e-06 16.1927 -23.7059 16.0672 -17.5473 -22.7844 -36.4654
